<svg width="1024" height="1024" viewBox="0 0 1024 1024" fill="none" xmlns="http://www.w3.org/2000/svg">
<path d="M1024 0H0V1024H1024V0Z" fill="#231F20"/>
<path d="M497.936 182.197C485.334 182.657 466.936 184.727 453.322 187.211C354.065 205.286 268.654 267.517 220.819 356.562C199.524 396.302 187.059 438.525 182.828 485.669C181.724 497.903 181.724 527.248 182.828 539.482C186.553 580.693 196.074 616.615 212.77 652.491C226.293 681.513 245.84 711.042 266.446 733.579L268.976 736.339L276.657 720.701C288.937 695.726 290.041 693.334 289.535 692.644C289.305 692.322 286.591 688.735 283.51 684.641C250.992 641.82 231.674 591.272 226.707 536.033C225.925 527.202 225.925 497.949 226.707 489.118C232.456 425.37 257.017 368.567 299.47 321.009C305.127 314.661 318.42 301.599 324.767 296.126C371.773 255.742 427.841 232.101 488.737 226.904C492.279 226.628 500.65 226.26 507.273 226.076L519.416 225.8L529.718 204.689C535.422 193.098 539.883 183.439 539.699 183.255C538.733 182.335 512.24 181.645 497.936 182.197Z" fill="white"/>
<path d="M549.726 206.804C546.461 213.473 484.368 340.096 411.697 488.198C339.071 636.3 279.509 757.772 279.371 758.048C279.187 758.508 288.523 758.646 325.089 758.646H371.038L405.947 677.235L440.857 595.825H499.638H558.419L558.511 614.729L558.649 633.678L597.284 600.654C618.534 582.487 636.196 567.4 636.518 567.124C636.932 566.71 628.653 559.351 598.112 533.273C576.679 514.921 559.017 499.835 558.787 499.789C558.603 499.697 558.419 505.308 558.419 512.299V524.993H514.77H471.122L514.678 423.438L558.189 321.836L558.327 396.439L558.419 471.042L591.903 500.892C610.301 517.312 626.215 531.525 627.319 532.537L629.251 534.33V364.519V194.753H592.409H555.613L549.726 206.804Z" fill="white"/>
<path d="M648.2 235.781L648.338 260.204L654.318 263.653C683.938 280.671 710.845 303.255 732.968 329.747C738.211 336.003 746.766 347.593 751.78 355.182C778.273 395.428 793.727 439.996 798.142 489.118C798.924 497.949 798.924 527.202 798.142 536.033C792.393 599.781 767.878 656.446 725.379 704.143C718.664 711.686 704.911 724.978 696.908 731.647C650.408 770.559 596.502 792.866 535.882 798.293C527.051 799.075 497.798 799.075 488.967 798.293C460.865 795.764 435.476 789.968 409.903 780.218L402.82 777.504H358.619H314.418L318.558 780.539C361.609 812.046 416.204 833.709 469.558 840.47C485.242 842.448 493.935 843 512.425 843C535.744 843 551.014 841.666 571.527 837.941C633.62 826.626 690.377 798.293 736.648 755.564C789.633 706.58 824.865 642.602 837.79 571.679C841.515 551.165 842.849 535.895 842.849 512.576C842.849 489.256 841.515 473.986 837.79 453.473C820.266 357.39 761.623 274.462 676.625 225.478C670.048 221.66 649.626 211.312 648.706 211.312C648.2 211.312 648.108 215.865 648.2 235.781Z" fill="white"/>
<path d="M494.716 266.827C475.261 268.483 459.347 271.381 442.329 276.394C384.422 293.458 334.334 331.955 302.368 383.975C297.492 391.886 289.489 407.478 285.764 416.217C276.243 438.663 270.079 462.764 267.412 487.969C266.262 499.053 266.262 525.684 267.412 536.723C271.919 578.67 285.856 617.029 309.175 651.249C311.474 654.699 313.59 657.32 313.774 657.136C313.958 656.952 318.834 647.202 324.537 635.519L334.978 614.27L329.964 604.243C320.581 585.523 314.832 568.367 311.244 548.451C308.853 535.159 308.439 530.1 308.439 512.116C308.485 497.444 308.577 494.362 309.497 487.601C314.694 448.321 328.768 415.067 353.329 384.113C359.125 376.8 371.727 363.784 379.178 357.436C407.925 332.875 442.053 316.823 477.928 310.936L484.138 309.924L489.013 300.081C491.727 294.654 496.51 284.857 499.684 278.326L505.479 266.505L501.018 266.597C498.58 266.643 495.728 266.735 494.716 266.827Z" fill="white"/>
<path d="M642.589 329.242V354.723L647.096 358.632C653.904 364.566 666.138 377.306 671.519 384.113C696.081 415.022 710.155 448.322 715.352 487.601C716.272 494.362 716.364 497.444 716.41 512.116C716.41 525.592 716.226 530.192 715.582 535.573C710.431 576.6 695.161 612.062 668.898 643.798C661.401 652.905 648.062 665.738 637.944 673.649C575.713 722.219 490.347 730.406 419.838 694.622C416.848 693.104 414.318 691.955 414.226 692.047C413.812 692.46 397.852 730.222 398.036 730.406C398.726 731.096 414.778 738.455 421.401 741.077C479.538 764.304 545.127 764.304 603.448 741.077C644.337 724.795 680.074 697.796 707.671 662.288C722.389 643.338 735.636 619.145 744.191 595.458C750.584 577.704 755.229 557.099 757.437 536.723C758.587 525.684 758.587 499.054 757.437 487.969C754.08 456.187 745.801 428.268 731.404 400.119C712.409 362.956 684.95 331.956 650.178 308.36C646.406 305.831 643.187 303.761 642.957 303.761C642.773 303.761 642.589 315.214 642.589 329.242Z" fill="white"/>
<path d="M594.111 621.812L559.293 652.858H594.295H629.25V621.812C629.25 604.748 629.158 590.766 629.066 590.766C628.974 590.766 613.244 604.748 594.111 621.812Z" fill="white"/>
</svg>
