<svg width="1024" height="1024" viewBox="0 0 1024 1024" fill="none" xmlns="http://www.w3.org/2000/svg">
<path d="M1024 0H0V1024H1024V0Z" fill="#FFCA05"/>
<path d="M775.66 378.115C663.726 443.346 557.137 446.741 557.137 446.741L540.994 353.955L530.834 397.558L493.174 397.48L483.034 353.875L466.88 446.661C466.88 446.661 360.303 443.252 248.34 378.063L73.1426 537.886C73.1426 537.886 184.605 512.949 217.34 514.358C239.926 515.355 251.829 538.284 290.086 591.846C290.086 591.846 369.074 564.515 400.434 568.312C431.769 572.055 468.137 617.512 512.011 670.126C555.905 617.512 592.248 572.137 623.597 568.358C654.937 564.609 733.926 591.907 733.926 591.907C772.172 538.346 784.086 515.429 806.663 514.446C839.392 513.041 950.857 537.966 950.857 537.966L775.66 378.115Z" fill="#231F20"/>
</svg>
