<svg width="1024" height="1024" viewBox="0 0 1024 1024" fill="none" xmlns="http://www.w3.org/2000/svg">
<g clip-path="url(#clip0)">
<path d="M1024 0H0V1024H1024V0Z" fill="#231F20"/>
<path fill-rule="evenodd" clip-rule="evenodd" d="M196.615 511.116C200.271 399.081 245.385 308.747 338.119 244.159C385.58 211.097 438.909 193.527 496.774 191.314C595.42 187.543 678.201 222.885 744.371 295.784C792.803 349.149 819.434 412.608 825.211 484.491C831.621 564.074 811.919 636.883 764.999 701.449C715.416 769.65 648.953 812.898 565.585 826.99C463.147 844.311 373.077 816.466 297.225 745.622C242.226 694.267 210.72 630.085 200 555.651C197.879 540.926 197.089 526.089 196.615 511.116ZM240.488 497.702C240.285 569.11 258.407 626.088 292.531 674.236C349.335 754.407 443.265 796.999 540.85 786.588C587.16 781.642 629.499 765.653 666.985 738.079C737.33 686.318 775.741 616.219 782.015 529.273C786.619 465.747 771.16 406.646 735.051 354.027C684.633 280.563 614.739 239.371 525.436 234.019C457.009 229.931 395.6 250.46 342.79 294.045C275.063 350.007 242.497 423.245 240.488 497.702Z" fill="#EC1E24"/>
<path fill-rule="evenodd" clip-rule="evenodd" d="M511.624 718.658C460.236 718.658 408.825 718.658 357.415 718.658C353.082 718.658 353.082 718.658 355.203 714.932C393.637 648.153 432.048 581.351 470.55 514.595C471.678 512.63 471.926 511.253 470.708 509.152C432.071 441.944 393.524 374.669 354.977 307.415C353.104 304.118 353.104 304.096 356.805 304.096C460.078 304.096 563.351 304.096 666.624 304.096C670.347 304.096 670.37 304.118 668.474 307.393C629.499 374.691 590.546 441.99 551.502 509.243C550.374 511.162 550.487 512.495 551.57 514.369C590.523 581.261 629.431 648.175 668.316 715.112C668.88 716.083 670.257 717.055 669.512 718.184C668.835 719.2 667.301 718.613 666.172 718.613C614.671 718.658 563.148 718.658 511.624 718.658Z" fill="#EC1E24"/>
</g>
<defs>
<clipPath id="clip0">
<rect width="1024" height="1024" fill="white"/>
</clipPath>
</defs>
</svg>
