<?xml version="1.0" encoding="utf-8"?>
<!-- Generator: Adobe Illustrator 17.1.0, SVG Export Plug-In . SVG Version: 6.00 Build 0)  -->
<!DOCTYPE svg PUBLIC "-//W3C//DTD SVG 1.1//EN" "http://www.w3.org/Graphics/SVG/1.1/DTD/svg11.dtd">
<svg version="1.1" id="Blue-Lantern" xmlns="http://www.w3.org/2000/svg" xmlns:xlink="http://www.w3.org/1999/xlink" x="0px"
	 y="0px" viewBox="0 0 1024 1023.9942" enable-background="new 0 0 1024 1023.9942" xml:space="preserve">
<rect id="blue-lantern-back" y="0" fill="#F2EFDB" width="1024" height="1023.9942"/>
<g id="blue-lantern-blue-lantern">
	<path fill="#47698A" d="M500.377,146.6685c58.332-1.9771,117.1259,10.2744,169.7255,35.6172
		c46.4541,22.2343,88.0664,54.4858,121.2979,93.8227c32.0654,37.8457,56.3281,82.2974,70.6797,129.7945
		c21.8252,71.8745,20.791,150.4799-3.0459,221.7202c-17.5,52.7256-47.3711,101.2656-86.3916,140.7968
		c-40.0371,40.7432-89.751,71.957-143.9365,90.1055c-74.4317,25.1348-157.0118,25.3399-231.5831,0.6084
		c-47.7973-15.7392-92.2031-41.6025-129.5917-75.2685c-39.0424-35.0313-70.4453-78.5508-91.2686-126.6944
		c-23.2456-53.4511-33.1714-112.5537-29.0772-170.6679c3.5118-52.5318,18.7061-104.2344,44.1114-150.3545
		c23.3174-42.4458,55.1772-80.1656,93.0859-110.2915c45.5601-36.337,99.9429-61.5425,157.1685-72.6285
		C460.937,149.4512,480.6284,147.2344,500.377,146.6685L500.377,146.6685z"/>
	<path fill="#F2EFDB" d="M501.2627,195.4112c57.7178-2.1885,115.9687,11.7202,166.3144,40.0747
		c43.629,24.4341,81.3487,59.3198,109.0459,100.9599c27.1856,40.6001,44.6856,87.6343,50.6397,136.1372
		c6.1807,49.7373,0.5654,100.96-16.6885,148.0459c-20.2596,55.7334-56.6719,105.3965-103.537,141.7051
		c-29.0195,22.5371-61.9824,40.0088-96.9717,51.249c-47.4658,15.3116-98.5512,19.1309-147.791,11.2168
		c-47.1885-7.4796-92.563-25.9511-131.6172-53.457c-44.2173-31.0176-80.3427-73.4853-103.7031-122.1943
		C199.394,592.2461,189.8828,526.96,199.3369,464.503c8.0176-53.983,30.4976-105.6861,64.3457-148.4688
		c32.586-41.4399,75.6802-74.5542,124.1519-95.2969C423.6313,205.3428,462.3257,196.7486,501.2627,195.4112L501.2627,195.4112z"/>
	<path fill="#47698A" d="M407.3486,244.0342c67.98-26.9316,146.2881-26.2226,213.8174,1.7774
		c-8.7949,18.2285-17.6318,36.4399-26.5605,54.6054c-18.5713-7.3369-38.1573-12.1997-58.037-14.2168
		c-0.0225,20.1597,0,40.3198-0.0089,60.4854c15.6377,2.3203,30.9658,6.7832,45.3408,13.3945
		c18.3086-19.9829,36.6738-39.9258,54.9541-59.9375c9.7939-10.2109,19.1601-20.8227,28.7627-31.2109
		c41.7432,26.4741,76.4053,63.9712,99.5312,107.6513c13,24.4683,22.3829,50.8511,27.7657,78.0401
		c8.7119,44.0742,6.9941,90.1943-5.1768,133.4629c-11.0264,39.3769-30.709,76.2744-57.1807,107.4287
		c-17.0019,20.0283-36.7285,37.7627-58.5224,52.4305c-1.5342,0.9317-1.9082,2.8116-2.7744,4.2579
		c-0.6026-0.0371-1.0801-0.3007-1.4483-0.7861c-19.8945-20.7539-39.7372-41.5654-59.6747-62.2832
		c-4.2881-4.2422-8.3027-8.748-12.414-13.1621c16.5771-12.1777,33.0341-24.5264,49.6689-36.6172
		c9.2803,9.7569,18.8398,19.2422,28.126,28.9912c30.5537-31.1855,51.834-71.3632,60.1172-114.2539
		c6.4824-33.2119,5.4677-67.8745-3.0782-100.623c-9.8222-37.8174-29.7304-72.9546-57.1562-100.7715
		c-13.6777,14.4453-27.1865,29.0684-40.8262,43.5596c17.8828,18.7602,31.3545,41.7202,38.7831,66.5659
		c9.2794,30.8003,9.3029,64.3315,0.083,95.1548c-7.1748,24.0791-19.9629,46.4629-37.0605,64.874
		c-24.7403,27-58.7373,45.1943-94.8604,51.1309c0.049,20.1943-0.0166,40.3916,0.0352,60.5947
		c18.9199-2.1748,37.4336-7.1055,55.2139-13.8399c8.5594,18.2598,17.1855,36.4795,25.746,54.7373
		c-67.415,27.92-145.5888,28.3282-213.4145,1.5049c7.4282-18.7334,15.2544-37.3164,22.7515-56.0283
		c19.7026,7.4805,40.3657,12.5547,61.3828,14.3369c0.0454-20.1797-0.0059-40.3681,0.0312-60.5478
		c-24.9311-3.3399-49.1284-12.2549-70.0571-26.2315c-22.1484-14.6836-40.6772-34.7597-53.5083-58.0234
		c-13.5689-24.4854-20.7314-52.4912-20.5288-80.4912c-0.0513-32.3369,9.8169-64.5943,27.8628-91.4287
		c5.8428-8.7539,12.5742-16.9029,19.9316-24.4283c-14.1113-14.4917-28.2715-28.9316-42.3603-43.4458
		c-33.8428,33.4058-56.5254,77.8741-63.7427,124.8741c-5.5142,35.4858-2.5483,72.2861,8.8315,106.3662
		c11.3858,34.1601,31.0743,65.5713,57.0401,90.5254c9.9111-11.043,19.8369-22.0684,29.7685-33.0889
		c15.8799,12.1143,31.6114,24.418,47.44,36.5976c-23.6255,25.8917-47.7544,51.3057-71.3858,77.1827
		c-2.6801-1.0342-4.9487-2.8174-7.3286-4.3604c-41.7197-27.7764-75.9883-66.6621-98.1201-111.6426
		c-22.8228-45.9111-32.6743-98.0938-28.5713-149.1684c3.4717-46.1655,18.5659-91.3828,43.3945-130.4512
		c23.291-36.7715,55.0424-68.1601,92.1656-90.9028c26.9487,30.2685,53.7597,60.6513,80.4458,91.1484
		c0.7856,0.8799,1.7539,2.2969,3.0825,1.3711c14.8603-6.6226,30.7173-10.7485,46.8003-13.0454
		c-0.1172-20.1431-0.0147-40.2915-0.0518-60.4341c-20.7456,1.6797-41.1338,6.5884-60.6655,13.6914
		C423.5713,280.92,415.5142,262.4512,407.3486,244.0342L407.3486,244.0342z"/>
	<path fill="#F2EFDB" d="M502.0713,393.8628c25.3115-2.2344,51.3369,3.6973,72.9258,17.1655
		c22.0625,13.5318,39.4511,34.4976,48.6289,58.6915c10.4678,27.229,10.3281,58.3486-0.3662,85.497
		c-8.7139,22.417-24.5284,41.9571-44.503,55.3457c-22.3964,15.0801-50.0966,22.126-76.9795,19.4971
		c-26.7202-2.3252-52.4804-14.1973-71.6401-32.96c-16.3144-15.7168-27.9487-36.2421-32.9946-58.3339
		c-6.6714-28.5772-2.2969-59.6055,12.2744-85.0972c12.4517-22.1084,32.186-39.9942,55.4116-50.1943
		C476.6055,398.2456,489.2544,395.0572,502.0713,393.8628L502.0713,393.8628z"/>
</g>
</svg>
