<svg width="1024" height="1024" viewBox="0 0 1024 1024" fill="none" xmlns="http://www.w3.org/2000/svg">
<path d="M1024 0H0V1024H1024V0Z" fill="#47698A"/>
<path fill-rule="evenodd" clip-rule="evenodd" d="M512 146.289C713.977 146.289 877.714 310.023 877.714 512C877.714 713.978 713.977 877.712 512 877.712C310.023 877.712 146.283 713.978 146.283 512C146.283 310.023 310.023 146.289 512 146.289Z" fill="#CD3125"/>
<path d="M512 882.1C307.923 882.1 141.894 716.075 141.894 512C141.894 307.926 307.923 141.9 512 141.9C716.074 141.9 882.103 307.926 882.103 512C882.103 716.075 716.074 882.1 512 882.1ZM512 150.678C312.763 150.678 150.671 312.766 150.671 512C150.671 711.235 312.763 873.324 512 873.324C711.234 873.324 873.326 711.235 873.326 512C873.326 312.766 711.234 150.678 512 150.678Z" fill="#231F20"/>
<path fill-rule="evenodd" clip-rule="evenodd" d="M512 209.983C678.8 209.983 814.018 345.204 814.018 512C814.018 678.797 678.8 814.018 512 814.018C345.197 814.018 209.983 678.797 209.983 512C209.983 345.204 345.197 209.983 512 209.983Z" fill="#F2EFDB"/>
<path d="M512 818.406C343.048 818.406 205.594 680.955 205.594 512.001C205.594 343.046 343.048 205.595 512 205.595C680.951 205.595 818.405 343.046 818.405 512.001C818.405 680.955 680.951 818.406 512 818.406ZM512 214.372C347.886 214.372 214.372 347.886 214.372 512.001C214.372 676.115 347.886 809.629 512 809.629C676.114 809.629 809.629 676.115 809.629 512.001C809.629 347.886 676.114 214.372 512 214.372Z" fill="#231F20"/>
<path fill-rule="evenodd" clip-rule="evenodd" d="M512 277.189C641.686 277.189 746.812 382.315 746.812 512.001C746.812 641.684 641.686 746.812 512 746.812C382.315 746.812 277.183 641.684 277.183 512.001C277.183 382.315 382.315 277.189 512 277.189Z" fill="#CD3125"/>
<path d="M512 751.201C380.103 751.201 272.794 643.898 272.794 512.001C272.794 380.104 380.103 272.801 512 272.801C643.895 272.801 751.2 380.104 751.2 512.001C751.2 643.898 643.895 751.201 512 751.201ZM512 281.578C384.94 281.578 281.571 384.944 281.571 512.001C281.571 639.059 384.94 742.424 512 742.424C639.055 742.424 742.423 639.059 742.423 512.001C742.423 384.944 639.055 281.578 512 281.578Z" fill="#231F20"/>
<path fill-rule="evenodd" clip-rule="evenodd" d="M512 343.855C604.863 343.855 680.148 419.138 680.148 512.004C680.148 604.864 604.863 680.146 512 680.146C419.131 680.146 343.852 604.864 343.852 512.004C343.852 419.138 419.131 343.855 512 343.855Z" fill="#47698A"/>
<path d="M512 684.535C416.863 684.535 339.463 607.138 339.463 512.004C339.463 416.867 416.863 339.467 512 339.467C607.137 339.467 684.537 416.867 684.537 512.004C684.537 607.138 607.137 684.535 512 684.535ZM512 348.244C421.703 348.244 348.24 421.707 348.24 512.004C348.24 602.298 421.703 675.758 512 675.758C602.297 675.758 675.76 602.298 675.76 512.004C675.76 421.707 602.297 348.244 512 348.244Z" fill="#231F20"/>
<path fill-rule="evenodd" clip-rule="evenodd" d="M416.051 640.866L452.48 525.618L358.829 451.935H475.697L510.246 348.026L545.6 451.935H665.166L571.515 525.618L605.519 638.435L510.246 569.883L416.051 640.866Z" fill="#F2EFDB"/>
<path d="M416.051 645.255C415.166 645.255 414.277 644.989 413.517 644.449C411.96 643.349 411.291 641.364 411.866 639.544L447.38 527.189L356.114 455.383C354.645 454.229 354.068 452.266 354.683 450.498C355.294 448.732 356.957 447.546 358.829 447.546H472.531L506.08 346.641C506.677 344.852 508.346 343.646 510.231 343.638C510.234 343.638 510.24 343.638 510.246 343.638C512.123 343.638 513.794 344.835 514.4 346.612L548.743 447.546H665.166C667.037 447.546 668.7 448.732 669.311 450.498C669.926 452.266 669.349 454.229 667.88 455.383L576.58 527.217L609.723 637.167C610.265 638.969 609.599 640.915 608.068 642.006C606.537 643.1 604.482 643.095 602.957 641.998L510.306 575.332L418.691 644.372C417.911 644.961 416.983 645.255 416.051 645.255ZM371.503 456.323L455.194 522.169C456.628 523.298 457.214 525.201 456.666 526.941L424.374 629.1L507.605 566.378C509.137 565.223 511.248 565.201 512.809 566.321L597.586 627.321L567.312 526.886C566.791 525.155 567.383 523.287 568.8 522.169L652.491 456.323H545.6C543.72 456.323 542.052 455.127 541.445 453.349L510.294 361.792L479.863 453.32C479.266 455.115 477.588 456.323 475.697 456.323H371.503V456.323Z" fill="#231F20"/>
</svg>
