<svg width="1024" height="1024" viewBox="0 0 1024 1024" fill="none" xmlns="http://www.w3.org/2000/svg">
<path d="M1024 0H0V1024H1024V0Z" fill="#F2EFDB"/>
<path d="M577.374 695.308C592.575 695.308 691.388 702.91 722.877 591.067C752.195 484.653 803.486 291.373 803.486 291.373C803.486 291.373 707.931 291.373 669.928 291.373C631.923 291.373 553.743 298.973 532.026 367.382C510.305 435.79 469.151 589.756 463.614 616.042C450.586 677.933 492.934 694.222 520.079 694.222C547.042 694.222 562.171 695.308 577.374 695.308Z" fill="black"/>
<path d="M310.254 291.373L203.843 695.308C203.843 695.308 299.397 695.308 337.4 695.308C375.406 695.308 453.586 687.707 475.303 619.299C497.02 550.891 538.177 396.924 543.711 370.639C556.743 308.745 514.394 292.459 487.249 292.459C447.071 292.459 310.254 291.373 310.254 291.373Z" fill="black"/>
<path d="M467.7 644.273C466.729 643.55 465.757 642.811 464.786 642.064C453.877 659.311 438.452 671.05 421.64 679.013C422.197 679.413 422.717 679.784 423.183 680.104C437.3 689.879 703.332 877.73 807.572 726.796C707.674 818.008 543.711 700.738 467.7 644.273Z" fill="#47698A"/>
<path d="M667.983 381.687C665.383 389.91 658.223 417.595 649.563 450.993H741.548C760.697 377.941 779.157 305.878 779.157 305.878C779.157 305.878 695.366 306.147 662.043 305.878C613.206 305.487 554.572 332.632 538.283 385.841C519.24 448.047 486.415 577.307 481.132 601.118C478.4 613.429 473.906 627.161 472.909 637.521C470.62 661.246 514.552 672.212 530.646 672.212C550.998 672.212 572.195 672.504 615.378 672.504C638.18 672.504 687.043 643.187 702.246 595.41C706.925 580.699 717.006 543.727 728.372 500.941H636.546C623.458 550.699 610.274 598.898 605.243 608.441C594.887 628.083 578.569 634.144 550.952 633.052C562.461 628.687 564.424 620.696 571.326 599.961C578.232 579.224 612.752 447.167 625.409 400.238C638.069 353.309 664.535 342.398 691.001 344.578C676.041 353.309 671.437 370.772 667.983 381.687Z" fill="#47698A"/>
<path d="M472.34 306.867C437.111 306.867 320.026 306.573 320.026 306.573L223.826 673.199C223.826 673.199 307.617 673.199 340.943 673.199C374.269 673.199 442.826 666.287 461.866 604.082C480.912 541.873 517.277 401.919 521.851 377.961C536.112 303.316 496.146 306.867 472.34 306.867ZM431.269 381.687C425.32 405.696 378.883 588.796 368.529 608.441C358.171 628.084 341.854 634.145 314.237 633.053C325.743 628.687 327.706 620.696 334.611 599.962C341.514 579.225 376.037 447.167 388.694 400.239C401.352 353.31 401.103 357.97 390.969 347.113C428.611 344.941 440.194 345.665 431.269 381.687Z" fill="#47698A"/>
<path d="M214.7 244.681C214.58 245.595 214.472 246.513 214.375 247.43C214.372 247.461 214.369 247.496 214.363 247.527C214.271 248.41 214.186 249.293 214.111 250.173C214.088 250.427 214.074 250.679 214.054 250.93C214.003 251.593 213.949 252.256 213.906 252.922C213.889 253.201 213.877 253.481 213.86 253.762C213.826 254.396 213.788 255.03 213.763 255.664C213.745 256.018 213.74 256.37 213.729 256.724C213.708 257.284 213.688 257.847 213.674 258.41C213.666 258.776 213.668 259.144 213.663 259.51C213.654 260.058 213.646 260.604 213.646 261.15C213.646 261.533 213.654 261.916 213.657 262.299C213.66 262.83 213.663 263.361 213.671 263.896C213.683 264.296 213.697 264.699 213.711 265.101C213.723 265.61 213.734 266.121 213.757 266.633C213.774 267.078 213.8 267.527 213.823 267.976C213.846 268.441 213.866 268.907 213.895 269.37C213.917 269.796 213.952 270.221 213.98 270.644C214.014 271.136 214.046 271.621 214.083 272.11C214.117 272.547 214.163 272.987 214.2 273.424C214.243 273.896 214.28 274.37 214.329 274.842C214.372 275.296 214.426 275.747 214.474 276.201C214.523 276.661 214.569 277.118 214.623 277.578C214.677 278.038 214.74 278.498 214.797 278.961C214.854 279.41 214.906 279.859 214.969 280.304C215.031 280.77 215.103 281.233 215.168 281.699C215.237 282.144 215.297 282.59 215.366 283.036C215.437 283.493 215.514 283.95 215.588 284.404C215.663 284.856 215.734 285.307 215.808 285.759C215.889 286.221 215.977 286.681 216.06 287.141C216.14 287.587 216.22 288.036 216.306 288.481C216.389 288.93 216.483 289.373 216.569 289.822C216.66 290.282 216.751 290.741 216.846 291.204C216.934 291.641 217.034 292.075 217.128 292.513C217.231 292.981 217.329 293.45 217.432 293.919C217.534 294.373 217.643 294.824 217.751 295.276C217.854 295.727 217.957 296.179 218.066 296.627C218.18 297.11 218.306 297.593 218.426 298.075C218.531 298.496 218.631 298.916 218.74 299.333C218.866 299.816 218.997 300.302 219.128 300.784C219.24 301.201 219.346 301.621 219.463 302.041C219.594 302.521 219.734 303.004 219.871 303.484C219.989 303.901 220.106 304.322 220.226 304.739C220.366 305.221 220.511 305.704 220.657 306.187C220.783 306.604 220.903 307.018 221.031 307.436C221.18 307.927 221.34 308.416 221.494 308.907C221.62 309.313 221.746 309.719 221.877 310.124C222.037 310.621 222.203 311.116 222.366 311.613C222.5 312.013 222.626 312.413 222.763 312.81C222.926 313.296 223.094 313.782 223.263 314.267C223.403 314.676 223.543 315.084 223.688 315.496C223.86 315.987 224.04 316.478 224.22 316.97C224.363 317.37 224.5 317.767 224.648 318.167C224.837 318.676 225.029 319.184 225.22 319.696C225.363 320.075 225.503 320.456 225.648 320.836C225.846 321.356 226.049 321.873 226.251 322.39C226.397 322.762 226.537 323.13 226.683 323.498C226.889 324.024 227.106 324.547 227.317 325.07C227.463 325.433 227.606 325.796 227.754 326.158C227.974 326.69 228.197 327.221 228.42 327.753C228.566 328.104 228.711 328.459 228.86 328.81C229.086 329.345 229.317 329.879 229.546 330.413C229.7 330.762 229.849 331.11 229.997 331.459C230.226 331.981 230.46 332.501 230.691 333.021C230.851 333.382 231.009 333.741 231.171 334.101C231.409 334.627 231.648 335.15 231.889 335.673C232.049 336.027 232.208 336.382 232.375 336.733C232.62 337.267 232.875 337.802 233.126 338.336C233.289 338.676 233.443 339.018 233.608 339.361C233.866 339.907 234.131 340.45 234.397 340.996C234.554 341.324 234.711 341.65 234.871 341.978C235.14 342.533 235.42 343.09 235.694 343.647C235.849 343.961 236.003 344.276 236.163 344.59C236.437 345.138 236.717 345.684 236.992 346.23C237.157 346.553 237.317 346.876 237.483 347.199C237.769 347.756 238.06 348.307 238.346 348.864C238.506 349.173 238.666 349.481 238.829 349.793C239.128 350.367 239.437 350.938 239.74 351.51C239.894 351.802 240.049 352.09 240.203 352.379C240.514 352.964 240.831 353.547 241.148 354.13C241.3 354.407 241.449 354.684 241.6 354.961C241.914 355.536 242.231 356.107 242.551 356.681C242.708 356.967 242.866 357.253 243.026 357.538C243.351 358.121 243.68 358.704 244.009 359.284C244.163 359.555 244.311 359.83 244.469 360.101C244.808 360.699 245.154 361.296 245.5 361.893C245.643 362.147 245.788 362.401 245.934 362.656C246.288 363.264 246.646 363.87 247.003 364.478C247.143 364.719 247.283 364.961 247.426 365.201C247.783 365.81 248.146 366.413 248.506 367.021C248.648 367.262 248.791 367.501 248.937 367.741C249.309 368.364 249.683 368.981 250.06 369.601C250.197 369.824 250.329 370.044 250.466 370.267C250.846 370.893 251.231 371.515 251.614 372.141C251.749 372.356 251.88 372.573 252.014 372.79C252.392 373.399 252.771 374.004 253.151 374.613C253.297 374.845 253.44 375.075 253.586 375.307C253.974 375.927 254.369 376.547 254.763 377.17C254.897 377.379 255.031 377.59 255.163 377.802C255.574 378.444 255.989 379.087 256.403 379.73C256.523 379.916 256.643 380.101 256.763 380.287C257.197 380.959 257.631 381.627 258.069 382.296C258.169 382.45 258.271 382.607 258.372 382.762C258.809 383.427 259.249 384.093 259.689 384.759C259.792 384.916 259.9 385.078 260.003 385.236C260.455 385.916 260.906 386.593 261.363 387.27C261.455 387.41 261.549 387.55 261.643 387.69C262.1 388.373 262.563 389.055 263.026 389.739C263.117 389.87 263.206 390.007 263.297 390.141C263.775 390.845 264.255 391.547 264.737 392.247C264.812 392.356 264.883 392.464 264.957 392.573C265.455 393.293 265.952 394.01 266.449 394.727C266.509 394.816 266.569 394.907 266.631 394.996C267.134 395.721 267.64 396.444 268.146 397.164C268.203 397.247 268.26 397.33 268.317 397.41C268.849 398.167 269.38 398.921 269.912 399.673C269.943 399.716 269.974 399.759 270.003 399.804C270.546 400.567 271.086 401.327 271.628 402.087C271.654 402.124 271.683 402.158 271.706 402.196C273.98 405.376 276.271 408.524 278.571 411.638L283.974 391.133C259.134 329.741 256.131 274.193 295.054 245.767C302.123 240.604 386.266 190.387 574.117 309.83C575.229 310.538 576.308 311.259 577.409 311.967C586.457 306.81 596.094 302.913 605.789 299.976C451.383 170.699 273.614 131.47 190.037 215.047C114.78 290.304 139.123 441.927 239.1 584.104L239.674 582.379C239.674 582.379 236.417 561.75 246.191 559.579C269.531 554.39 287.74 560.842 306.86 574.005C304.734 571.744 302.606 569.475 300.483 567.179C152.86 407.507 161.494 295.716 214.7 244.681ZM755.428 471.196C753.32 479.03 751.205 486.873 749.103 494.67C789.423 573.836 790.949 645.756 768.483 677.932C740.84 717.53 672.46 724.407 590.489 695.367C589.754 695.385 589.045 695.395 588.357 695.401C560.997 684.773 511.174 663.244 469.614 633.404C468.12 636.432 466.5 639.313 464.763 642.053C465.74 642.805 466.723 643.545 467.7 644.273C495.817 665.159 535.965 694.361 580.458 718.259C581.535 718.836 582.615 719.413 583.695 719.984C583.817 720.047 583.937 720.11 584.057 720.176C587.52 722.005 591.011 723.796 594.52 725.55C594.666 725.624 594.811 725.699 594.96 725.77C595.971 726.275 596.989 726.775 598.005 727.275C598.183 727.361 598.36 727.447 598.537 727.536C599.671 728.093 600.811 728.641 601.952 729.187C601.954 729.19 601.957 729.19 601.96 729.19C603.174 729.773 604.391 730.351 605.612 730.922C605.615 730.922 605.617 730.925 605.622 730.928C606.748 731.453 607.877 731.976 609.008 732.493C609.229 732.596 609.449 732.696 609.668 732.796C610.628 733.236 611.591 733.667 612.554 734.099C612.771 734.196 612.989 734.293 613.208 734.391C615.548 735.436 617.894 736.456 620.246 737.453C620.391 737.513 620.538 737.573 620.68 737.636C621.683 738.059 622.686 738.476 623.692 738.893C623.962 739.005 624.237 739.116 624.511 739.23C625.434 739.607 626.357 739.981 627.28 740.351C627.535 740.453 627.786 740.556 628.037 740.656C630.369 741.584 632.706 742.487 635.042 743.367C635.269 743.453 635.495 743.533 635.72 743.619C636.652 743.968 637.582 744.311 638.517 744.647C638.829 744.762 639.14 744.873 639.452 744.984C640.349 745.311 641.249 745.627 642.146 745.944C642.417 746.036 642.689 746.133 642.961 746.228C645.28 747.036 647.6 747.813 649.923 748.562C650.217 748.653 650.508 748.747 650.803 748.842C651.674 749.116 652.542 749.391 653.412 749.659C653.757 749.765 654.1 749.87 654.443 749.976C655.323 750.241 656.2 750.505 657.08 750.768C657.366 750.848 657.649 750.933 657.931 751.019C659.094 751.355 660.257 751.687 661.42 752.013C661.483 752.03 661.548 752.047 661.612 752.064C662.692 752.361 663.769 752.653 664.846 752.936C665.183 753.024 665.523 753.11 665.86 753.201C666.683 753.413 667.505 753.621 668.326 753.827C668.7 753.922 669.072 754.013 669.443 754.104C670.308 754.315 671.174 754.521 672.037 754.722C672.323 754.79 672.609 754.858 672.894 754.925C674.04 755.188 675.186 755.441 676.331 755.688C676.526 755.733 676.72 755.77 676.914 755.81C677.86 756.013 678.803 756.207 679.748 756.395C680.117 756.47 680.489 756.539 680.857 756.613C681.649 756.768 682.44 756.916 683.232 757.061C683.612 757.133 683.992 757.201 684.372 757.27C685.243 757.425 686.115 757.573 686.989 757.719C687.257 757.762 687.526 757.81 687.794 757.853C688.925 758.036 690.054 758.213 691.18 758.376C691.455 758.416 691.726 758.453 692 758.49C692.857 758.613 693.717 758.728 694.575 758.839C694.965 758.891 695.354 758.939 695.746 758.987C696.514 759.082 697.28 759.17 698.045 759.256C698.431 759.299 698.817 759.342 699.2 759.382C700.094 759.476 700.992 759.562 701.883 759.645C702.115 759.664 702.349 759.69 702.579 759.71C703.689 759.808 704.8 759.893 705.909 759.97C706.232 759.996 706.554 760.013 706.877 760.033C707.68 760.084 708.48 760.13 709.283 760.173C709.677 760.193 710.075 760.21 710.471 760.228C711.223 760.262 711.977 760.287 712.729 760.313C713.112 760.324 713.492 760.336 713.872 760.345C714.8 760.37 715.732 760.385 716.66 760.391C716.84 760.393 717.02 760.395 717.203 760.398C718.294 760.401 719.386 760.396 720.474 760.379C720.82 760.373 721.162 760.361 721.508 760.355C722.274 760.339 723.041 760.318 723.803 760.293C724.2 760.275 724.597 760.259 724.995 760.241C725.74 760.21 726.486 760.173 727.232 760.127C727.594 760.107 727.96 760.087 728.323 760.064C729.36 759.996 730.397 759.922 731.428 759.83C731.52 759.824 731.609 759.815 731.7 759.807C732.737 759.716 733.774 759.613 734.808 759.499C735.166 759.459 735.523 759.416 735.883 759.373C736.617 759.287 737.351 759.196 738.085 759.098C738.477 759.047 738.872 758.99 739.263 758.938C740.005 758.83 740.743 758.719 741.483 758.601C741.826 758.55 742.168 758.499 742.511 758.441C743.569 758.264 744.623 758.082 745.674 757.882C745.843 757.847 746.011 757.813 746.18 757.778C747.075 757.604 747.968 757.425 748.86 757.23C749.223 757.153 749.585 757.07 749.949 756.987C750.66 756.83 751.369 756.664 752.078 756.493C752.454 756.401 752.837 756.31 753.217 756.213C753.962 756.024 754.708 755.83 755.451 755.63C755.76 755.545 756.072 755.465 756.38 755.379C757.411 755.09 758.44 754.79 759.465 754.478C759.692 754.407 759.917 754.333 760.146 754.264C760.954 754.007 761.766 753.75 762.572 753.478C762.931 753.358 763.288 753.236 763.649 753.11C764.343 752.87 765.035 752.624 765.723 752.373C766.082 752.241 766.443 752.11 766.806 751.975C767.566 751.69 768.325 751.395 769.082 751.092C769.346 750.99 769.612 750.887 769.875 750.778C770.877 750.373 771.877 749.95 772.871 749.515C773.131 749.401 773.388 749.281 773.646 749.167C774.397 748.833 775.146 748.493 775.894 748.141C776.243 747.975 776.591 747.807 776.94 747.641C777.615 747.315 778.288 746.984 778.96 746.644C779.3 746.469 779.64 746.301 779.98 746.124C780.763 745.721 781.54 745.307 782.317 744.884C782.526 744.773 782.734 744.664 782.943 744.549C783.914 744.012 784.88 743.459 785.843 742.895C786.115 742.733 786.388 742.567 786.659 742.401C787.363 741.984 788.066 741.555 788.763 741.119C789.1 740.91 789.434 740.699 789.769 740.481C790.428 740.061 791.085 739.632 791.74 739.196C792.057 738.987 792.371 738.778 792.686 738.567C793.511 738.007 794.334 737.432 795.152 736.85C795.277 736.761 795.403 736.675 795.526 736.587C796.462 735.913 797.394 735.221 798.32 734.515C798.597 734.304 798.871 734.089 799.146 733.876C799.808 733.364 800.471 732.844 801.128 732.315C801.449 732.058 801.769 731.799 802.085 731.539C802.729 731.009 803.369 730.472 804.008 729.929C804.294 729.687 804.579 729.447 804.863 729.201C805.771 728.413 806.677 727.619 807.572 726.795C703.331 877.73 437.3 689.878 423.183 680.104C422.791 679.836 422.36 679.527 421.906 679.204C421.82 679.144 421.743 679.087 421.654 679.024C421.648 679.018 421.643 679.015 421.64 679.012C392.231 692.941 358.58 695.307 337.4 695.307C336.917 695.307 336.414 695.307 335.914 695.307C496.963 846.773 694.075 897.847 783.454 808.464C853.125 738.796 837.452 603.676 755.428 471.196Z" fill="black"/>
<path d="M838.7 640.653C827.84 566.453 802.866 542.564 802.866 542.564C798.82 605.891 798.508 605.099 797.274 611.476C747.489 585.636 717.726 589.533 717.726 589.533C717.726 589.533 773.045 667.944 776.806 672.505C768.714 698.493 726.134 741.636 726.134 741.636C746.403 745.259 765.949 751.41 810.912 726.342C823.274 744.545 833.634 764.441 849.197 793.395C849.197 793.395 850.434 708.582 849.92 702.185C860.063 695.121 877.428 675.762 877.428 675.762C877.428 675.762 845.088 645.176 838.7 640.653Z" fill="black"/>
<path d="M835.223 648.453C831.962 624.562 824.866 594.75 813.003 578.036C811.917 600.839 807.572 620.385 805.4 627.984C772.051 609.922 758.886 606.642 745.46 604.722C765.005 627.524 785.857 658.391 793.458 665.99C786.943 696.393 755.877 728.116 750.446 732.459C777.594 738.973 805.4 718.11 814.088 711.596C827.165 728.241 834.837 744.733 842.508 761.613C844.683 735.553 844.812 712.896 842.894 696.784C860.269 685.928 861.866 680.105 867.294 674.676C855.351 662.733 841.737 652.796 835.223 648.453Z" fill="#47698A"/>
<path d="M842.877 763.733L842.014 761.836C835.085 746.596 827.243 729.333 813.989 712.351C806.246 718.15 784.346 734.247 761.211 734.247C757.465 734.247 753.803 733.824 750.32 732.99L749.24 732.728L750.109 732.036C754.403 728.602 786.117 696.928 792.863 666.162C789.257 662.476 783.04 654.15 775.211 643.667C766.412 631.888 755.462 617.225 745.048 605.076L744.112 603.979L745.537 604.185C758.146 605.984 771.34 608.967 805.063 627.185C807.414 618.696 811.437 599.505 812.46 578.01L812.535 576.438L813.446 577.722C827.532 597.567 833.7 633.385 835.726 648.136C839.112 650.404 854.115 660.73 867.68 674.293L868.063 674.676L867.68 675.059C866.283 676.456 865.125 677.899 863.903 679.43C860.452 683.738 856.166 689.09 843.474 697.065C845.366 713.293 845.223 735.619 843.051 761.659L842.877 763.733ZM814.174 710.854L814.514 711.259C827.495 727.779 835.334 744.533 842.137 759.487C844.154 734.231 844.232 712.608 842.354 696.851L842.314 696.508L842.606 696.327C855.369 688.351 859.631 683.025 863.054 678.75C864.186 677.336 865.263 675.996 866.529 674.682C852.845 661.087 837.817 650.836 834.92 648.904L834.717 648.768L834.683 648.525C832.746 634.321 826.849 599.659 813.462 579.659C812.286 601.167 808.2 620.162 805.923 628.133L805.737 628.784L805.143 628.462C772.42 610.738 758.986 607.305 746.811 605.47C756.965 617.425 767.537 631.579 776.079 643.019C784.037 653.67 790.323 662.087 793.84 665.608L794.048 665.814L793.989 666.105C787.637 695.737 758.226 726.259 751.62 732.167C754.703 732.83 757.925 733.161 761.211 733.161C784.423 733.161 806.497 716.61 813.748 711.173L814.174 710.854Z" fill="black"/>
<path d="M252.648 510.039C260.848 520.642 275.957 539.385 300.483 567.179C294.151 553.345 273.977 505.996 262.368 473.147L278.571 411.639C241.723 361.747 207.111 303.213 214.7 244.682C169.388 288.142 156.426 375.673 244.74 499.302L244.711 499.413C244.711 499.413 246.643 502.202 251.04 507.947C251.574 508.665 252.091 509.379 252.631 510.102L252.648 510.039Z" fill="#47698A"/>
</svg>
