<svg width="1024" height="1024" viewBox="0 0 1024 1024" fill="none" xmlns="http://www.w3.org/2000/svg">
<path d="M1024 0H0V1024H1024V0Z" fill="#ED1C24"/>
<path d="M572 294.8V729.3C668.5 703.2 739.7 615.7 739.7 512.1C739.7 408.5 668.5 320.9 572 294.8ZM593.9 564.8L714.9 493.5C709.2 546.6 646 650.8 593.9 564.8ZM512 182C330 182 182 330 182 512C182 694 330 842 512 842C694 842 842 694 842 512C842 330 694 182 512 182ZM512 808.7C346.7 808.7 212.8 675.9 212.8 512C212.8 348.1 346.7 215.3 512 215.3C677.3 215.3 811.2 348.1 811.2 512C811.2 675.9 677.3 808.7 512 808.7ZM284.3 512C284.3 615.6 355.5 703.1 452 729.2V294.8C355.5 320.9 284.3 408.4 284.3 512ZM306.2 489.1L424.7 564.5C369.6 648.7 310 542.4 306.2 489.1Z" fill="black"/>
<path d="M512 215.3C346.7 215.3 212.8 348.1 212.8 512C212.8 675.9 346.8 808.7 512 808.7C677.3 808.7 811.2 675.9 811.2 512C811.2 348.1 677.3 215.3 512 215.3ZM452 729.2C355.5 703.1 284.3 615.6 284.3 512C284.3 408.4 355.5 320.9 452 294.8V729.2ZM572 729.2V294.8C668.5 320.9 739.7 408.4 739.7 512C739.7 615.6 668.5 703.1 572 729.2Z" fill="#ED1C24"/>
<path d="M306.2 489.1L424.7 564.5C369.6 648.7 310 542.4 306.2 489.1ZM593.9 564.8C646 650.9 709.2 546.6 714.9 493.5L593.9 564.8Z" fill="white"/>
</svg>
