<svg width="1024" height="1024" viewBox="0 0 1024 1024" fill="none" xmlns="http://www.w3.org/2000/svg">
<path d="M1024 0H0V1024H1024V0Z" fill="#CD3125"/>
<path d="M797.257 512C797.257 669.543 669.54 797.257 512 797.257C354.457 797.257 226.743 669.543 226.743 512C226.743 354.457 354.457 226.74 512 226.74C669.54 226.74 797.257 354.457 797.257 512Z" fill="#F2EFDB"/>
<path d="M512 804.571C350.676 804.571 219.429 673.323 219.429 512C219.429 350.674 350.676 219.426 512 219.426C673.326 219.426 804.571 350.674 804.571 512C804.571 673.323 673.326 804.571 512 804.571ZM512 234.054C358.741 234.054 234.057 358.74 234.057 512C234.057 665.26 358.741 789.943 512 789.943C665.257 789.943 789.942 665.26 789.942 512C789.942 358.74 665.257 234.054 512 234.054Z" fill="#231F20"/>
<path d="M343.411 507.084C362.68 491.878 754.491 183.167 777.254 165.564C795.046 151.786 806.066 147.329 811.098 146.286C810.157 150.198 806.908 158.515 795.783 172.946C795.788 172.94 795.788 172.938 795.788 172.938C772.988 202.466 600.72 438.575 593.398 448.609C591.049 451.837 590.7 456.112 592.512 459.675C594.321 463.235 597.981 465.481 601.975 465.481H753.226C765.361 465.481 771.386 466.749 774.229 467.709C772.806 469.698 769.815 473.078 762.74 478.343C762.732 478.346 229.429 873.041 229.429 873.041C221.994 878.584 216.34 878.578 214.237 876.217C211.606 873.275 212.597 866.103 219.623 858.584C241.712 834.909 512.929 538.292 515.663 535.297C518.503 532.189 519.24 527.704 517.543 523.849C515.843 520.003 512.037 517.518 507.832 517.518H348.815C340.846 517.518 335.957 517.038 332.866 516.518C334.818 514.395 337.94 511.4 343.411 507.084Z" fill="#FFCA05"/>
<path d="M218.286 885.029C214.42 885.029 211.043 883.626 208.776 881.083C202.969 874.586 205.227 863.278 214.278 853.592C236.102 830.201 507.692 533.18 510.263 530.366C511.149 529.398 511.377 527.998 510.849 526.797C510.323 525.606 509.137 524.832 507.832 524.832H348.815C341.672 524.832 336.059 524.472 331.653 523.729C329.007 523.287 326.818 521.426 325.947 518.889C325.077 516.352 325.666 513.54 327.482 511.569C330.255 508.552 333.983 505.206 338.881 501.34C360.022 484.661 749.895 177.476 772.78 159.778C792.754 144.311 804.429 140.198 809.612 139.124C812.063 138.618 814.606 139.398 816.349 141.196C818.092 142.995 818.794 145.561 818.209 147.995C816.96 153.19 813.063 162.51 801.583 177.405C780.38 204.862 629.908 410.98 599.96 452.02L599.306 452.92C598.574 453.926 598.466 455.249 599.031 456.36C599.597 457.475 600.726 458.166 601.975 458.166H753.226C763.58 458.166 771.435 459.043 776.568 460.781C778.766 461.52 780.481 463.26 781.189 465.463C781.902 467.669 781.525 470.081 780.177 471.963C777.583 475.589 773.309 479.595 767.108 484.209C765.423 485.455 239.096 874.986 233.78 878.917C228.426 882.912 223.062 885.029 218.286 885.029ZM351.267 510.204H507.832C514.926 510.204 521.363 514.398 524.235 520.892C527.097 527.401 525.852 534.986 521.063 540.232C518.491 543.049 246.827 840.146 224.971 863.575C222.644 866.066 221.419 868.186 220.798 869.723C221.881 869.26 223.306 868.483 225.057 867.174C679.109 531.135 747.28 480.681 758.209 472.877C756.697 472.826 755.04 472.795 753.226 472.795H601.975C595.189 472.795 589.063 469.038 585.988 462.986C582.92 456.952 583.491 449.792 587.483 444.306L588.146 443.397C618.114 402.329 768.686 196.071 790 168.468C791.746 166.202 793.28 164.109 794.623 162.183C790.923 164.552 786.635 167.55 781.732 171.346C759.629 188.439 394.7 475.957 351.267 510.204Z" fill="#231F20"/>
</svg>
