<svg width="1024" height="1024" viewBox="0 0 1024 1024" fill="none" xmlns="http://www.w3.org/2000/svg">
<path d="M1024 0H0V1024H1024V0Z" fill="#536C4B"/>
<path fill-rule="evenodd" clip-rule="evenodd" d="M511.886 905.634C729.491 905.634 906.972 728.874 906.972 512C906.972 295.126 729.491 118.365 511.886 118.365C294.274 118.365 117.028 295.126 117.028 512C117.028 728.874 294.274 905.634 511.886 905.634Z" fill="#F2EFDB"/>
<path d="M511.886 912.948C290.125 912.948 109.714 733.086 109.714 512C109.714 290.914 290.125 111.052 511.886 111.052C733.771 111.052 914.285 290.914 914.285 512C914.285 733.086 733.771 912.948 511.886 912.948ZM511.886 125.68C298.194 125.68 124.343 298.983 124.343 512C124.343 725.018 298.194 898.32 511.886 898.32C725.703 898.32 899.657 725.018 899.657 512C899.657 298.983 725.703 125.68 511.886 125.68Z" fill="#231F20"/>
<path fill-rule="evenodd" clip-rule="evenodd" d="M617.36 330.777C684.217 366.348 729.469 434.334 729.469 511.999C729.469 589.668 684.217 657.663 617.36 693.228H724.966V780.799H296.783V693.228H406.64C339.783 657.663 294.531 589.668 294.531 511.999C294.531 434.334 339.783 366.348 406.64 330.777H296.783V243.205H724.966V330.777H617.36V330.777ZM512.006 636.051C579.76 636.051 634.92 580.216 634.92 511.999C634.92 443.788 579.76 387.959 512.006 387.959C444.463 387.959 389.08 443.788 389.08 511.999C389.08 580.216 444.463 636.051 512.006 636.051Z" fill="#536C4B"/>
<path d="M730.481 786.571H291.046V687.749H385.994C325.565 648.126 288.794 582.525 288.794 512.148C288.794 441.766 325.56 376.171 385.994 336.549H291.046V237.726H730.481V336.549H637.789C698.223 376.171 734.982 441.769 734.982 512.148C734.982 582.531 698.223 648.126 637.789 687.749H730.481V786.571ZM302.297 775.32H719.229V699H617.251L614.606 688.406C681.914 652.6 723.731 585.058 723.731 512.148C723.731 439.24 681.914 371.7 614.606 335.892L617.251 325.297H719.229V248.977H302.297V325.297H406.531L409.177 335.892C341.863 371.7 300.046 439.237 300.046 512.148C300.046 585.062 341.863 652.6 409.177 688.406L406.531 699H302.297V775.32Z" fill="#231F20"/>
<path d="M511.892 641.823C441.011 641.823 383.343 583.645 383.343 512.148C383.343 440.645 441.011 382.477 511.892 382.477C582.771 382.477 640.435 440.645 640.435 512.148C640.435 583.645 582.771 641.823 511.892 641.823ZM511.892 393.731C447.217 393.731 394.594 446.851 394.594 512.148C394.594 577.445 447.217 630.565 511.892 630.565C576.565 630.565 629.177 577.445 629.177 512.148C629.177 446.851 576.565 393.731 511.892 393.731Z" fill="#231F20"/>
</svg>
