<svg width="1024" height="1024" viewBox="0 0 1024 1024" fill="none" xmlns="http://www.w3.org/2000/svg">
<g clip-path="url(#clip0)">
<path d="M1024 0H0V1024H1024V0Z" fill="#FFCA05"/>
<path d="M836.491 342.332C894.931 441.48 890.737 600.141 827.074 695.107C736.28 833.925 577.635 896.542 423.131 865.222C297.914 841.227 176.846 721.199 152.846 594.942C126.731 446.669 178.931 305.806 303.148 217.08C406.451 146.103 552.589 127.303 668.457 184.692C735.228 216.026 802.046 274.486 836.491 342.332Z" fill="#231F20"/>
<path d="M793.703 335.012C756.12 276.584 702.851 235.852 641.314 209.783C521.274 159.681 383.503 181.601 285.383 272.372C190.429 364.252 151.788 513.486 202.949 639.788C238.434 732.662 332.343 805.759 423.137 830.782C555.725 861.085 701.84 814.102 784.286 698.268C859.445 592.827 861.531 443.561 793.703 335.012Z" fill="#CD3125"/>
<path d="M721.691 297.434C713.303 307.886 690.371 304.752 678.891 319.354C689.32 338.152 713.303 350.658 726.902 367.343C758.223 404.937 773.857 448.795 789.491 492.623L818.76 462.343C832.308 580.308 790.559 687.793 696.623 757.719C595.36 830.782 445.08 845.422 338.605 775.462L330.28 768.176C379.337 749.376 421.08 698.268 428.366 648.131C418.983 638.736 408.56 654.382 396.023 652.314C354.263 660.69 322.96 642.919 292.697 619.971C313.594 614.73 333.383 623.107 355.337 607.416C376.188 594.942 391.863 571.947 392.874 547.925C374.12 551.067 342.783 554.199 326.097 539.57C343.84 539.57 369.926 534.348 378.28 514.561C361.594 500.978 335.497 504.121 315.645 507.24C295.834 514.561 276.011 530.199 265.554 549.999C248.851 521.827 243.634 476.966 260.337 447.743C273.914 392.418 349.028 408.078 348.017 349.618C399.177 288.064 471.182 281.806 543.188 272.375C593.308 273.434 669.474 271.349 721.691 297.434ZM473.251 385.132C452.4 385.132 432.565 395.572 415.863 401.817C438.823 419.557 457.605 394.514 473.251 385.132Z" fill="#231F20"/>
</g>
<defs>
<clipPath id="clip0">
<rect width="1024" height="1024" fill="white"/>
</clipPath>
</defs>
</svg>
