<svg width="1024" height="1024" viewBox="0 0 1024 1024" fill="none" xmlns="http://www.w3.org/2000/svg">
<path d="M1024 0H0V1024H1024V0Z" fill="#CD3125"/>
<path d="M471.422 175.408C396.53 184.665 326.194 219.129 272.944 272.39C218.27 326.934 183.529 399.991 175.271 476.894C173.42 494.695 173.42 529.728 175.271 547.53C189.367 679.545 279.636 792.193 405.215 833.92C441.237 845.882 474.412 851.151 512.997 851.151C684.992 851.151 828.938 723.266 849.441 552.087C854.851 507.085 850.295 455.817 837.196 413.236C797.045 282.929 683.283 189.08 548.022 174.696C529.513 172.845 489.931 173.13 471.422 175.408ZM598.14 292.328C620.494 299.449 638.576 307.993 645.695 314.687L650.393 319.244L651.248 397.57L651.959 475.897L655.519 484.441C660.502 496.119 663.635 512.639 663.635 526.453C663.635 544.112 658.082 556.359 629.463 602.643C614.371 626.853 603.55 647.788 600.276 659.465C597.001 670.716 580.342 698.771 577.068 698.771C576.356 698.771 573.508 695.495 570.518 691.65L565.108 684.53H516.983C490.501 684.53 466.866 684.957 464.445 685.384C461.313 686.096 458.323 688.375 454.621 693.217C451.773 696.92 449.068 700.053 448.641 700.195C448.214 700.195 443.373 693.359 438.105 685.099C431.555 675.131 427.853 667.868 427.142 663.453C425.291 653.769 415.751 634.971 397.099 604.067C376.312 569.746 370.19 558.495 364.494 544.254C359.938 532.861 359.938 532.861 361.647 521.041C362.501 514.633 365.491 501.531 368.196 492.132L373.18 474.9V396.716V318.532L379.017 314.402C388.414 307.566 411.337 296.316 424.294 292.328C437.393 288.198 458.608 285.777 458.608 288.341C458.608 297.028 473.273 424.771 474.412 425.341C475.124 425.91 484.094 427.762 494.345 429.471L512.712 432.746L533.784 428.901C545.317 426.765 554.856 424.771 555.141 424.629C555.568 424.344 568.24 292.043 568.24 287.344C568.24 284.353 568.667 284.068 573.366 285.065C576.213 285.492 587.319 288.768 598.14 292.328ZM438.959 697.632L448.071 711.446L455.76 704.467L463.591 697.489L514.136 697.347H564.823L570.233 704.467C573.223 708.455 576.356 711.446 576.925 711.303C577.637 711.018 582.62 704.183 588.031 696.065C597.713 681.682 597.998 681.397 598.994 685.384C601.842 696.208 600.56 703.186 592.872 718.709C588.885 726.968 584.044 735.086 582.193 736.937L578.634 740.07L572.369 737.364C563.257 733.377 547.88 731.098 535.92 731.953C526.523 732.665 525.384 732.38 523.533 729.817C521.682 727.253 520.258 726.968 512.854 727.538C507.729 727.823 503.172 729.105 501.749 730.386C499.613 732.238 497.762 732.38 491.355 731.383C480.819 729.674 464.587 731.953 454.051 736.795C448.926 739.073 445.224 740.07 444.654 739.216C444.085 738.361 441.664 734.943 439.244 731.526C436.823 727.965 432.41 720.417 429.42 714.579L424.152 704.04L425.86 692.79C426.857 686.524 428.138 681.966 428.708 682.678C429.277 683.248 433.833 690.084 438.959 697.632Z" fill="#FFCA05"/>
<path d="M391.734 486.95C392.873 482.812 397.15 480.38 401.288 481.519L487.799 505.326C491.362 506.307 493.457 509.991 492.476 513.554V513.554C487.575 531.372 469.158 541.842 451.341 536.939L414.367 526.764C397.124 522.018 386.991 504.193 391.734 486.95V486.95Z" fill="#FFCA05"/>
<path d="M533.282 514.59C532.144 510.452 534.576 506.174 538.714 505.035L625.226 481.233C628.79 480.252 632.473 482.347 633.453 485.91V485.91C638.353 503.729 627.882 522.147 610.064 527.049L573.089 537.222C555.847 541.966 538.024 531.833 533.282 514.59V514.59Z" fill="#FFCA05"/>
</svg>
