<?xml version="1.0" encoding="utf-8"?>
<!-- Generator: Adobe Illustrator 17.1.0, SVG Export Plug-In . SVG Version: 6.00 Build 0)  -->
<!DOCTYPE svg PUBLIC "-//W3C//DTD SVG 1.1//EN" "http://www.w3.org/Graphics/SVG/1.1/DTD/svg11.dtd">
<svg version="1.1" id="Red-Lantern" xmlns="http://www.w3.org/2000/svg" xmlns:xlink="http://www.w3.org/1999/xlink" x="0px"
	 y="0px" viewBox="0 0 1024 1024" enable-background="new 0 0 1024 1024" xml:space="preserve">
<rect id="red-lantern-back" fill="#231F20" width="1024" height="1024"/>
<g id="red-lantern-red-lantern">
	<path fill="#CD3125" d="M887.2002,506.9717c0,204.4365-165.7314,370.1679-370.1719,370.1679
		c-204.437,0-370.1684-165.7314-370.1684-370.1679c0-204.4405,165.7314-370.1719,370.1684-370.1719
		C721.4688,136.7998,887.2002,302.5312,887.2002,506.9717"/>
	<path fill="#231F20" d="M355.8687,811.4688c-108.8228-57.834-183.646-172.5118-183.646-304.3458
		c0-106.4599,47.0629-201.7861,123.5087-264.9316v210.0571l59.98,48.9517L355.8687,811.4688z"/>
	<path fill="#231F20" d="M628.1289,832.709c-34.8574,11.874-72.2266,18.4199-111.1006,18.4199
		c-39.457,0-77.3652-6.5918-112.6655-18.8115l0.0059-0.2432v-148.417c19.3115,45.0312,62.6025,76.8799,113.9965,76.8799
		c49.0723,0,91.4346-28.6914,111.3233-70.4912v140.4199v1.6084L628.1289,832.709z"/>
	<path fill="#231F20" d="M673.9482,811.9082c110.6485-57.5537,184.4805-172.502,184.4805-304.9966
		c0-107.3061-47.6777-203.0859-126.1377-266.2231v208.3427l-58.3428,52.169V811.9082z"/>
	<path fill="#231F20" d="M404.4341,483.8628l-4.6196-3.374l-45.7403-44.3345V202.4912
		c46.2686-25.3027,101.8687-39.7056,159.834-39.7056c58.0488,0,113.7686,14.2945,160.04,39.6685v235.3115l-48.2822,39.9087v104.9312
		c-18.1064-41.8116-60.2607-70.6768-109.3349-70.6768c-51.1197,0-93.9742,31.3252-112.7081,75.9746L404.4341,483.8628z"/>
	<path fill="#231F20" d="M592.6885,636.3262c0,41.3828-33.2832,74.9336-74.3457,74.9336c-41.0601,0-74.3487-33.5508-74.3487-74.9336
		c0-41.3916,33.2886-74.9406,74.3487-74.9406C559.4053,561.3857,592.6885,594.9346,592.6885,636.3262"/>
</g>
</svg>
