<svg width="1024" height="1024" viewBox="0 0 1024 1024" fill="none" xmlns="http://www.w3.org/2000/svg">
<path d="M1024 0H0V1024H1024V0Z" fill="#CD3125"/>
<path d="M864.72 277.163C843.723 242.897 799.506 224.785 736.849 224.785C693.117 224.785 641.323 233.945 587.065 251.274C530.3 269.405 472.892 295.439 416.434 328.654C347.063 369.462 285.377 417.785 238.046 468.394C191.708 517.945 161.509 567.002 150.708 610.268C142.697 642.348 145.583 669.948 159.28 692.302C180.28 726.568 224.497 744.679 287.148 744.679C330.886 744.679 382.68 735.519 436.932 718.191C493.697 700.059 551.106 674.025 607.568 640.811C676.938 600.005 738.62 551.682 785.951 501.074C832.289 451.522 862.491 402.465 873.294 359.2C881.303 327.12 878.417 299.517 864.72 277.163Z" fill="#231F20"/>
<path d="M242.246 360.049C685.357 218.886 594.68 422.68 489.977 442.314L513.166 365.657L370.32 403.986L226.355 776.052L381.537 726.503L455.389 526.448L762.951 796.617L621.791 464.748C905.046 303.957 765.96 120.728 267.486 328.263L242.246 360.049Z" fill="#FFCA05"/>
<path d="M762.951 803.931C761.223 803.931 759.5 803.32 758.126 802.111L458.563 538.971L388.4 729.037C387.62 731.151 385.909 732.786 383.763 733.471L228.58 783.019C225.894 783.876 222.96 783.117 221.028 781.065C219.097 779.014 218.517 776.037 219.534 773.411L363.5 401.345C364.34 399.171 366.171 397.525 368.426 396.919L511.272 358.594C513.834 357.902 516.571 358.663 518.42 360.565C520.266 362.474 520.935 365.234 520.166 367.774L500.757 431.939C537.917 419.439 571.129 383.434 568.543 355.617C566.283 331.291 536.68 317.891 485.189 317.891C427.78 317.891 346.792 334.419 244.466 367.017C241.406 367.994 238.054 366.851 236.226 364.203C234.397 361.554 234.517 358.022 236.517 355.499L261.757 323.714C262.528 322.742 263.531 321.985 264.674 321.508C449.877 244.402 567.297 228.217 633.186 228.217C710.777 228.217 761.368 251.28 771.985 291.491C785.597 343.045 733.006 408.72 631.063 467.859L769.683 793.753C771.018 796.894 770.003 800.545 767.237 802.545C765.954 803.471 764.451 803.931 762.951 803.931ZM455.389 519.134C457.146 519.134 458.866 519.765 460.217 520.954L743.651 769.928L615.06 467.611C613.605 464.191 614.948 460.222 618.18 458.388C735.354 391.874 767.154 330.491 757.843 295.222C749.052 261.936 703.617 242.845 633.186 242.845C568.834 242.845 454.003 258.737 272.04 334.291L262.743 345.999C355.883 317.631 430.637 303.262 485.189 303.262C566.263 303.262 581.34 335.217 583.108 354.262C586.709 392.965 541.243 440.143 491.326 449.502C488.826 449.977 486.24 449.1 484.531 447.2C482.826 445.297 482.237 442.64 482.977 440.197L502.357 376.131L375.803 410.088L238.691 764.434L375.911 720.62L448.526 523.914C449.363 521.654 451.257 519.948 453.591 519.36C454.186 519.209 454.789 519.134 455.389 519.134Z" fill="#231F20"/>
</svg>
