<svg width="1024" height="1024" viewBox="0 0 1024 1024" fill="none" xmlns="http://www.w3.org/2000/svg">
<path d="M1024 0H0V1024H1024V0Z" fill="#CD3125"/>
<path fill-rule="evenodd" clip-rule="evenodd" d="M412.441 205.006C411.86 216.24 407.201 226.297 404.098 237.346C401.094 248.031 398.344 259.506 395.751 270.731C388.988 299.991 382.659 328.803 383.233 366.706C406.327 371.16 435.435 367.852 456.259 363.577C467.64 370.966 474.951 382.44 485.469 390.697C483.481 376.54 492.971 373.86 501.117 369.834C497.497 375.954 491.889 380.083 493.811 391.743C498.565 394.909 499.331 386.517 503.202 385.486C508.577 391.597 515.383 391.271 520.942 385.486C524.928 386.36 523.845 392.309 528.24 392.789C534.437 384.68 525.594 375.883 523.022 369.834C530.757 373.923 539.577 376.929 538.68 389.654C547.102 384.517 557.365 372.191 565.794 363.577C587.525 368.154 615.311 370.283 640.908 367.748C640.052 304.269 624.639 255.354 609.611 206.054C613.78 205.52 613.743 211.009 614.826 213.352C630.348 246.923 644.154 285.269 655.514 326.02C657.16 331.94 659.94 339.997 661.765 347.929C663.374 354.874 666.76 366.974 665.942 370.88C664.154 379.44 650.028 382.317 647.166 389.654C638.474 379.4 613.457 382.352 589.789 381.309C583.083 381.017 574.092 379.089 569.971 380.263C560.877 382.866 556.897 396.143 552.24 403.217C565.092 404.105 575.237 391.645 586.663 390.697C593.9 390.097 604.497 395.537 613.78 398.003C640.679 405.134 670.679 411.14 695.154 418.866C696.634 334.969 675.086 265.066 646.126 208.134C674.902 247.852 694.286 294.337 708.714 348.972C711.211 358.409 713.348 367.42 714.98 377.14C717.257 390.803 717.36 407.685 724.365 417.823C715.711 427.254 705.302 434.926 696.197 443.903C670.559 428.617 621.04 406.557 579.36 410.517C569.383 411.466 560.554 416.44 553.277 423.037C566.014 428.131 574.837 428.611 591.874 428.254C596.108 428.165 602.24 426.4 605.434 427.217C609.056 428.131 614.868 435.605 620.04 440.774C650.172 470.903 677.126 492.977 712.885 516.929C724.062 524.408 730.354 532.022 743.142 522.143C745.262 621.157 718.96 694.217 686.811 761.031C683.062 768.817 680.682 777.871 674.291 783.985C698.474 726.935 717.056 659.04 717.056 579.52C717.056 571.169 718.657 560.791 717.056 553.44C714.794 543.012 698.385 531.943 688.891 523.186C661.931 498.309 640.491 480.835 610.651 457.466C604.805 452.886 599.84 446.697 595.006 444.943C589.926 443.103 581.902 442.723 576.225 441.817C569.12 440.683 562.286 440.389 556.405 439.731C567.937 452.12 586.234 467.494 602.308 479.372C605.243 481.997 608.306 478.432 611.697 478.326C615.512 594.62 606.88 708.515 574.148 793.371C566.326 813.637 557.663 833.52 543.891 848.663C588.374 768.36 591.719 630.475 582.488 509.626C591.937 501.426 587.834 494.62 579.36 484.589C570.092 473.62 553.632 457.617 542.846 452.249C542.083 457.683 543.942 463.003 545.971 467.897C548.011 472.806 552.531 477.06 553.277 481.46C554.857 490.812 551.052 511.28 549.102 522.143C542.651 558.129 529.052 597.648 516.765 624.377C512.437 623.837 515.469 615.935 512.594 613.948C507.96 614.186 510.768 621.86 508.423 624.377C494.057 599.877 481.788 559.312 475.035 522.143C472.623 508.86 468.871 492.88 470.864 481.46C472.441 472.392 482.211 464.169 481.297 453.292C471.75 455.489 462.846 464.977 455.214 473.111C447.619 481.214 439.731 489.943 434.351 499.191C434.995 503.763 439.446 504.531 440.61 508.58C433.767 630.868 433.997 768.506 480.257 847.626C475.369 846.957 473.101 840.777 470.864 837.189C427.794 768.306 416.224 662.117 411.4 552.395C410.334 528.154 409.234 504.432 412.441 480.414C413.323 475.377 418.694 482.837 421.828 479.372C438.294 466.972 453.125 452.94 468.777 439.732C455.15 441.826 440.346 441.152 428.091 445.989C417.455 450.189 405.818 461.786 395.751 469.986C365.127 494.923 332.864 522.015 307.076 550.309C301.811 643.403 323.131 718.408 348.806 783.986C311.771 711.791 277.409 631.503 280.995 522.143C295.105 535.526 316.6 513.749 327.943 505.452C359.528 482.349 393.26 452.537 417.664 427.217C435.33 429.815 456.077 427.717 470.864 424.08C452.438 400.566 405.184 412.372 376.974 420.954C358.04 426.715 340.374 434.977 328.986 443.903C318.157 436.652 309.869 426.855 299.776 418.866C307.16 400.309 308.736 369.137 314.38 347.929C328.17 296.131 349.677 250.28 375.927 208.134C375.237 216.146 369.685 223.049 366.546 230.046C343.681 280.895 328.627 343.926 327.943 417.823C352.05 412.349 380.831 405.614 409.313 398.003C418.598 395.52 428.216 390.446 435.391 390.697C446.99 391.111 457.886 403.077 470.864 403.217C467.784 393.429 461.898 386.452 455.214 380.263C433.728 382.729 409.724 378.877 390.535 382.352C388.584 382.709 386.015 383.852 383.233 385.486C383.484 385.332 377.033 389.649 378.02 389.654C373.677 389.617 363.084 374.56 358.196 372.963C368.221 308.92 390.85 257.48 412.441 205.006Z" fill="#231F20"/>
</svg>
