<svg width="1024" height="1024" viewBox="0 0 1024 1024" fill="none" xmlns="http://www.w3.org/2000/svg">
<path d="M1024 0H0V1024H1024V0Z" fill="#47698A"/>
<path d="M284.588 220.191L156.526 349.817L522.223 768.7L887.954 349.66L751.206 220.191H284.588Z" fill="#231F20"/>
<path d="M522.223 780.483L145.956 349.492L281.352 212.443H754.291L898.685 349.149L522.223 780.483ZM167.096 350.144L522.223 756.917L877.223 350.172L748.12 227.94H287.826L167.096 350.144Z" fill="#231F20"/>
<path d="M746.086 233.049C749.571 236.352 861.914 342.711 870.154 350.509C862.326 359.477 531.537 738.472 522.223 749.143C512.903 738.466 181.645 359.034 174.068 350.355C181.766 342.563 286.434 236.623 289.966 233.049H746.086V233.049Z" fill="#CD3125"/>
<path d="M375.023 329.148C375.023 349.8 389.166 365.286 414.852 372.757C453.32 382.543 495.606 382.877 536.503 383.206C604.754 383.748 669.132 384.257 716.263 424.737C729.28 437.454 732.686 444.131 732.72 444.197L736.96 452.703L827.663 350.86L745.932 278.472V353.96H641.748C640.297 347.494 636.972 335.64 629.457 318.591C614.435 284.494 562.297 262.463 496.634 262.463C437.903 262.463 375.023 289.26 375.023 329.148Z" fill="#231F20"/>
<path d="M724.942 415.26C673.937 371.44 607.28 370.909 536.714 370.346C496.474 370.026 454.977 369.698 418.234 360.355C398.16 354.515 387.88 343.995 387.88 329.152C387.88 300.978 439.714 275.32 496.634 275.32C556.269 275.32 604.92 294.795 617.691 323.778C628.383 348.026 630.022 361.001 630.034 361.129L630.714 366.795L758.788 366.818V307.038C772.519 319.195 802.64 345.875 809.491 351.938C802.371 359.94 748.183 420.86 739.206 430.958C736.246 427.124 731.789 421.938 724.942 415.26Z" fill="#FFCA05"/>
<path d="M306.011 262.678L216.366 352.309L273.292 420.526L276.6 389.878C279.669 361.386 297.886 327.989 324.137 302.718C326.406 300.389 346.04 284.641 359.315 274.149L373.817 262.678H306.011V262.678Z" fill="#231F20"/>
<path d="M336.92 275.535C327.577 283.018 317.068 291.535 315.057 293.621C286.892 320.727 267.194 357.144 263.817 388.498C263.817 388.498 263.789 388.752 263.76 389.035C253.36 376.569 238.514 358.781 233.766 353.095C241.091 345.77 307.92 278.95 311.337 275.535H336.92Z" fill="#FFCA05"/>
<path d="M383.731 544.063L388.548 536.612C388.835 536.161 395.874 525.552 413.994 521.18C443.777 514 485.548 520.981 511.726 552.769L515.395 557.229L521.166 557.52C651.897 557.526 665.978 527.177 665.978 514.129C665.978 504.078 665.978 477.366 476.909 472.829C425.257 471.586 360.017 463.972 343.937 461.289L311.366 455.552L383.731 544.063Z" fill="#231F20"/>
<path d="M343.074 474.166C361.131 477.041 425.446 484.455 476.594 485.686C648.166 489.803 653.114 511.652 653.114 514.129C653.114 514.435 651.6 544.629 521.709 544.667C521.709 544.661 521.651 544.598 521.651 544.598C491.937 508.515 444.657 500.561 410.983 508.683C397.252 511.995 388.44 518.372 383.315 523.269C377.034 515.612 355.754 489.641 343.074 474.166Z" fill="#FFCA05"/>
<path d="M435.748 600.303L522.365 693.08L615.932 586.729L581.703 592.229C557.475 595.929 509.131 600.863 458.143 592.237C458.086 592.229 422.96 586.603 422.96 586.603L435.748 600.303Z" fill="#231F20"/>
<path d="M582.663 605.074C566.96 622.926 529 666.071 522.08 673.938C514.926 666.274 474.72 623.206 457.857 605.146C509.252 613.531 557.629 608.837 582.663 605.074Z" fill="#FFCA05"/>
<path d="M691.108 262.654C697.6 272.32 686.691 287.049 685.857 288.589C682.76 292.837 677.777 299.403 672.143 300.34C662.052 286.628 640.823 262.654 640.823 262.654H691.108Z" fill="#231F20"/>
<path d="M681.137 271.417C680.423 274.929 674.852 286.672 672.565 284.204C671.32 282.506 662.343 271.417 662.343 271.417C662.343 271.417 675.331 271.003 681.137 271.417Z" fill="#FFCA05"/>
</svg>
