<svg width="512" height="512" viewBox="0 0 512 512" fill="none" xmlns="http://www.w3.org/2000/svg">
<path d="M62 415.5L139.5 203V172.5L364.5 198L358 475L62 415.5Z" fill="#D2F0A2" stroke="#D2F0A2"/>
<path d="M298.5 465L326 225.5L363 235L350 478L298.5 465Z" fill="#BCEA73" stroke="#BCEA73"/>
<path d="M474 197C519.6 257.4 442.333 287.834 398 295.5C418 227 262.5 198.334 175 185.5L107 197L97.5 219.5L107 238.5L97.5 250C35.5 227.2 12.3333 184.834 8.5 166.5C47 43.5 398 116 474 197Z" fill="#1C96F9" stroke="#1C96F9"/>
<path d="M376 140L165 100C181.167 81.8335 227 47.7002 281 56.5002C335 65.3002 366.833 115.834 376 140Z" fill="#A8E7EF" stroke="#A8E7EF"/>
<circle cx="95" cy="111" r="14" fill="#BCEA73"/>
<circle cx="434" cy="111" r="14" fill="#70D9E6"/>
<circle cx="442" cy="246" r="14" fill="#A8E7EF"/>
<circle cx="368" cy="187" r="14" fill="#A8E7EF"/>
<circle cx="268" cy="158" r="14" fill="#A8E7EF"/>
<circle cx="158" cy="149" r="14" fill="#A8E7EF"/>
<circle cx="69" cy="177" r="14" fill="#A8E7EF"/>
<path d="M110.6 30.1005C107.1 32.9005 107.2 37.0005 110.9 41.2005L113.8 44.5005L110.9 47.8005C107.5 51.6005 107.1 56.1005 110 59.0005C113.2 62.2005 117 62.0005 121.8 58.3005L125.2 55.8005L128 58.5005C133.4 63.7005 141 61.1005 141 54.1005C141 51.7005 140.2 49.8005 138.4 47.9005L135.8 45.2005L138.4 41.7005C141.6 37.5005 141.8 32.8005 138.8 30.0005C135.7 27.2005 131.7 27.5005 127.8 30.9005L124.5 33.8005L121.2 30.9005C117.4 27.5005 114.2 27.2005 110.6 30.1005Z" fill="black"/>
<path d="M372.1 32.6005C370.9 34.1005 370 35.9005 370 36.7005C370 38.6005 372.5 43.4005 374.4 44.9005C375.8 46.1005 375.7 46.6005 373.5 49.2005C369.9 53.5005 369.4 56.7005 371.7 59.8005C374.6 63.7005 379.7 63.9005 383.9 60.5005L387 57.8005L390.1 60.5005C394.3 63.9005 399.4 63.7005 402.3 59.8005C404.6 56.7005 404.1 53.5005 400.6 49.3005L398.2 46.5005L400.6 43.7005C404.1 39.6005 404.6 36.3005 402.3 33.2005C399.4 29.3005 394.3 29.1005 390.1 32.5005L387 35.2005L383.9 32.6005C379.7 29.1005 374.9 29.1005 372.1 32.6005Z" fill="black"/>
<path d="M239.5 50.5003C211.9 55.0003 186.7 67.4003 166.6 86.3003L158.8 93.7003L139.1 94.7003L119.5 95.6003L115.5 91.4003C106.6 82.0003 92.1 79.2003 81.2 84.6003C75 87.7003 68.6 94.6003 66.7 100.3C65.4 104.3 65.2 104.4 56.4 107.2C37.7 113.3 19.9 123.5 11.4 133.3C2.00001 144.1 -1.99999 159.7 1.30001 172.7C8.50001 200.7 39 228 91.5 253.6C101.1 258.3 109 262.3 109 262.3C109 262.4 103.6 277.5 97 295.9C90.4 314.2 85 330.2 85 331.5C85 337.2 94.1 340.2 97.7 335.6C98.8 334.3 110.1 303.9 123 268C144 209.2 146.6 202.7 148.9 201.7C151.5 200.6 204.3 200 205.3 201C205.6 201.3 198.2 232.1 188.9 269.5C179.6 306.9 172 338.3 172 339.3C172 341.9 176.5 346 179.5 346C185.5 346 185.5 346.2 204 272C213.5 233.8 221.4 202.4 221.4 202.3C221.5 202.2 225.7 202.7 230.8 203.4C241.3 204.8 244.8 204 246.8 199.6C248.1 196.6 247.2 193.4 244.4 190.8C240.7 187.5 192.7 183.4 170.5 184.5C134.7 186.2 112.5 192.4 100.9 204C96.3 208.7 93 215.8 93 221.5C93 225.2 95.9 233.6 98.5 237.4L100.9 241L97.6 239.6C85.8 234.7 60 218.8 47.4 208.8C26.4 192.2 15.9 176.6 15.9 162.3C15.9 151.3 21.6 142.6 34.8 134C41.9 129.3 60.9 121 64.4 121C65.8 121 68.3 124.8 71.5 131.4C76.4 141.6 77.8 143.6 82.3 146.4C93.8 153.5 108.4 149 113.4 136.8C114.4 134.4 115.7 131.6 116.3 130.5C120.8 122.5 123 117.3 123 114.5C123 111.4 123.2 111.2 127.6 110.6C136.1 109.5 181.2 110 199.2 111.5C264.6 116.8 331.7 132.2 386.5 154.2C402 160.5 427.2 172.6 437.3 178.7C442 181.5 443.8 182.1 446.5 181.7C449.7 181.2 450.4 181.6 458.3 189.9C471.5 203.9 478.1 218.9 476.5 231.6C475.8 237.1 471.1 247.8 468.5 250C467.2 251.1 467 250.7 467 247.9C467 246 465.9 242.2 464.6 239.4C455.8 220.6 426.4 220.5 418.6 239.2C413.6 251 421.1 265.6 434 269.4C438.3 270.7 438.4 270.8 436 271.7C425.8 275.7 401.2 282.5 400.3 281.6C400.1 281.5 400.5 279.9 401.1 278.1C402.7 273.4 401.8 264.2 399 258.5C390.7 241.1 357.8 220.9 314.5 206.5C301.1 202.1 278.4 196 275.2 196C272.2 196 268 200.3 268 203.3C268 208 271.4 210.7 279.6 212.6C283.8 213.6 287.5 215 287.7 215.8C288 216.5 286.2 232.9 283.6 252.3C281.1 271.7 279 289 279 290.7C279 295 282 298 286.3 298C292.8 298 292.9 297.4 298.2 258.2C300.8 238.6 302.9 221.7 303 220.8C303.1 216.6 358 239.1 358 243.3C358 244 356.4 296.9 354.4 360.9C351.8 446.4 351.1 477.9 351.9 479.6C354.1 484.6 361.5 485.2 364.4 480.7C365.6 478.9 366.4 462.8 368.5 395.6C369.9 349.9 371.2 312.4 371.4 312.2C371.7 312 378.1 311.4 385.7 310.9C470.3 305.4 518.1 277.1 511.2 236.7C508.8 223 501.2 210.3 486.7 196.2C477.9 187.6 475.5 186.6 471.4 189.4C469.5 190.7 468.7 190.4 460.9 184.8C452.8 179 452.5 178.7 452.5 174.8C452.5 171.5 451.9 170.3 449.3 168.1C444.8 164.4 418 150.6 401 143.4C393.1 140 386.3 136.6 385.9 135.9C385.5 135.1 383.1 130.2 380.6 125C373.9 110.9 366.7 100.7 355 88.9003C336 69.7003 313.3 57.4003 286 51.5003C275.3 49.2003 250.8 48.7003 239.5 50.5003ZM277 65.4003C312.6 70.8003 342.7 90.6003 361.4 121C363.9 125.1 366 128.7 366 129.2C366 129.6 363.4 129 360.3 127.9C348.7 123.9 317 115.1 299.4 111.1C265.3 103.4 221.8 97.0003 192.1 95.4003L179.6 94.7003L183.1 91.8003C208 70.5003 244 60.5003 277 65.4003ZM100.7 99.0003C105.2 101.7 107.3 105.4 107.3 110.4C107.3 118.5 101.4 124.4 93.3 124.2C85.8 124.1 80 118.2 80 110.7C80 99.9003 91.6 93.4003 100.7 99.0003ZM128.7 207.2C128.5 207.9 126.1 214.6 123.5 222C120.8 229.4 118.5 235.7 118.3 235.9C117.7 236.8 112.8 231.4 110.9 227.8C106.8 219.7 109.3 214.7 120.4 209.4C128.1 205.7 129.5 205.3 128.7 207.2ZM448.5 243.5C451.7 246.6 451.8 251.3 448.8 253.4C447.6 254.3 444.6 255 442.2 255C438.7 255 437.3 254.4 434.9 252.1C431.5 248.6 431.3 247.2 434.1 243.6C435.8 241.4 436.9 241 441.1 241C445.1 241 446.6 241.5 448.5 243.5ZM379.4 258C389.9 269.2 388.9 276.6 376.3 282.9L372 285V278.8C372 268.7 373.2 253 374 253C374.4 253 376.8 255.3 379.4 258Z" fill="black"/>
<path d="M422 84.1007C403.5 92.4007 399 117.201 413.5 131.301C422.4 140.001 435.2 142.101 446.2 136.701C464.1 127.901 468.2 104.301 454.2 90.3007C446.2 82.2007 432.1 79.5007 422 84.1007ZM440.7 99.0007C445.1 101.701 447.2 105.201 447.2 110.301C447.4 118.501 441.5 124.401 433.3 124.201C425.8 124.101 420 118.201 420 110.701C420 99.9007 431.6 93.4007 440.7 99.0007Z" fill="black"/>
<path d="M147.7 126.401C138.3 129.801 132.7 137.501 132.7 147.001C132.7 165.201 154.1 176.601 171 167.401C182.3 161.201 185.8 147.501 178.9 136.301C176.6 132.601 170.2 127.901 165.1 126.201C160.6 124.601 152.4 124.801 147.7 126.401ZM160.6 141.001C162.8 141.001 167 145.901 167 148.401C167 154.901 157 157.401 151.1 152.401C148 149.801 147.4 147.801 148.6 144.501C149.5 142.301 154.9 139.901 157.5 140.501C158.6 140.801 160 141.001 160.6 141.001Z" fill="black"/>
<path d="M259.5 135.7C253.3 137.1 250.2 138.7 246.3 142.3C238.1 149.8 237.2 161.5 244.1 170.9C252.3 182.3 271.2 184.5 282.1 175.3C291.6 167.2 291.7 151.6 282.3 142.9C276.7 137.6 265.8 134.2 259.5 135.7ZM271.7 154.5C274.4 157.6 274.7 161.1 272.3 163.3C266.4 168.5 255 164.6 255 157.4C255 156.1 256.2 154.2 257.8 153C261.6 150 268.5 150.7 271.7 154.5Z" fill="black"/>
<path d="M56.9999 197.142L56.9999 197.142L57.0069 197.145C59.6604 198.351 63.7507 198.925 67.8299 198.863C71.9125 198.801 75.8709 198.104 78.2693 196.856L78.2703 196.856C82.5645 194.635 85.6897 191.987 87.756 188.815C89.8206 185.645 90.8509 181.917 90.9 177.495L90.9001 177.493C91.0951 164.426 80.2781 154.6 65.5 154.6C63.8813 154.6 62.0081 154.772 60.3037 155.044C58.5925 155.317 57.0913 155.684 56.197 156.06C51.5607 158.082 48.1445 160.705 45.8853 163.948C43.6281 167.189 42.5004 171.084 42.5 175.698C42.5988 185.393 47.775 193.118 56.9999 197.142ZM70.6915 169.938L70.6915 169.938L70.696 169.94C73.8924 171.303 75.8393 173.939 76.2686 176.595C76.7008 179.27 75.5828 181.953 72.7063 183.256L72.704 183.257C67.8534 185.424 62.9208 184.828 59.5464 181.454C57.3965 179.304 56.3717 177.128 56.6804 175.052C56.9889 172.976 58.6002 171.194 61.26 169.761C62.6656 168.981 63.9763 168.573 65.4839 168.6C66.9762 168.627 68.6192 169.079 70.6915 169.938Z" fill="black" stroke="black"/>
<path d="M358.6 166C346.6 169.8 339.8 184 344.5 195.3C351.2 211.4 374.1 216 386.3 203.7C394.8 195.2 395.1 183.2 387.2 174C382.3 168.2 376.9 165.7 368.5 165.4C364.7 165.2 360.2 165.5 358.6 166ZM374 182.9C377.5 185.4 378 191.2 374.8 193.4C367.6 198.5 355.1 191.1 359.5 184.3C362.5 179.7 368.9 179.1 374 182.9Z" fill="black"/>
<path d="M391 353C388.1 355.9 388.5 360.3 391.9 364.2L394.8 367.5L391.9 370.8C388.3 374.8 388.1 378.8 391.3 381.8C394.7 385 399 384.7 402.5 381L405.3 378.1L408.7 381C417.5 388.8 427.2 378.9 419 370.5L416 367.4L419 364.5C422.6 361 423.1 356.1 420 353C417.1 350.1 412.7 350.5 408.7 354L405.3 356.9L402.5 354C399 350.4 394 350 391 353Z" fill="black"/>
<path d="M75.2 360C74 361.2 73 362.2 73 362.4C73 362.6 68.5 375.2 63 390.6C57.5 405.9 53 419.4 53 420.6C53 421.7 53.9 423.6 55.1 424.9C57.9 427.9 63.6 427.5 66.1 424C68.7 420.5 87 368.9 87 365.2C87 361.4 83.7 358 80 358C78.6 358 76.4 358.9 75.2 360Z" fill="black"/>
</svg>
