<svg width="1024" height="1024" viewBox="0 0 1024 1024" fill="none" xmlns="http://www.w3.org/2000/svg">
<path d="M1024 0H0V1024H1024V0Z" fill="#CD3125"/>
<path d="M678.905 333.497C637.863 333.497 621.789 347.382 610.289 368.234C610.289 368.234 581.102 421.882 573.691 435.522C566.482 422.031 512.02 320.128 512.02 320.128C512.02 320.128 457.057 422.905 450.309 435.522C442.9 421.882 413.714 368.234 413.714 368.234C402.217 347.382 386.148 333.497 345.097 333.497H109.714L111.44 340.16C112.011 342.371 124.5 388.937 158.668 398.888C161.688 408.988 176.231 450.997 210.554 456.751C214.926 470.336 231.737 513.36 269.817 513.36H336.44C342.726 513.36 356.631 525.7 361.645 535.734C366.946 546.331 443.074 689.002 446.314 695.071L451.011 703.871L512.02 589.814L572.991 703.871L577.685 695.071C580.926 689.002 657.057 546.331 662.36 535.734C667.374 525.7 681.274 513.36 687.565 513.36H754.183C792.263 513.36 809.077 470.336 813.445 456.751C847.768 450.997 862.314 408.988 865.331 398.888C899.503 388.937 911.988 342.371 912.559 340.16L914.285 333.497H678.905V333.497Z" fill="#231F20"/>
<path d="M170.54 400.726C170.989 400.737 341.763 400.78 341.763 400.78C350.731 400.78 361.96 413.108 366.977 423.151C368.483 426.171 375.277 439.28 384.257 456.566C373.806 449.054 361.114 446.746 353.091 446.746H218.526C190.366 446.746 175.671 414.866 170.54 400.726Z" fill="#FFCA05"/>
<path d="M754.183 502.703H687.565C675.177 502.703 658.445 519.71 652.823 530.962C648.326 539.959 589.937 649.456 572.977 681.253C566.371 668.882 512.02 567.088 512.02 567.088C512.02 567.088 458.148 667.916 451.023 681.253C434.063 649.456 375.677 539.959 371.18 530.962C365.557 519.71 348.829 502.703 336.44 502.703H269.817C242.12 502.703 227.46 471.865 222.097 457.405H353.091C369.706 457.405 390.309 469.163 394.834 476.905C416.54 518.625 443.151 569.657 444.96 573.117L449.628 582.065L512.02 465.411L574.374 582.065L579.04 573.117C580.852 569.657 607.463 518.625 629.166 476.905C634.237 467.382 655.343 457.405 670.914 457.405H801.897C796.546 471.865 781.88 502.703 754.183 502.703Z" fill="#FFCA05"/>
<path d="M805.481 446.749H670.914C662.886 446.749 648.672 449.563 639.748 456.566C648.729 439.277 655.518 426.171 657.025 423.146C662.046 413.12 673.8 400.78 682.24 400.78C682.24 400.78 853.015 400.737 853.46 400.726C848.331 414.86 833.631 446.749 805.481 446.749Z" fill="#FFCA05"/>
<path d="M852.108 390.126H682.24C669.84 390.126 653.114 407.128 647.497 418.379C645.491 422.377 582.726 543.005 574.257 559.243C566.754 545.21 512.02 442.931 512.02 442.931C512.02 442.931 457.154 545.385 449.743 559.243C441.277 543.005 378.511 422.377 376.509 418.379C370.886 407.128 354.157 390.126 341.766 390.126H171.894C143.571 390.126 129.011 358.163 123.966 344.151H345.097C381.034 344.151 394.429 355.334 404.38 373.374L450.395 457.974L512.02 342.745L573.605 457.974L619.623 373.374C629.571 355.334 642.96 344.151 678.905 344.151H900.037C894.994 358.163 880.435 390.126 852.108 390.126Z" fill="#FFCA05"/>
</svg>
